<svg aria-hidden="true" style="position: absolute; width: 0; height: 0; overflow: hidden;" version="1.1" xmlns="http://www.w3.org/2000/svg" xmlns:xlink="http://www.w3.org/1999/xlink">
<defs>
<symbol id="icon-arrow" viewBox="0 0 32 32">
<path stroke-linejoin="round" stroke-linecap="round" stroke-miterlimit="4" stroke-width="2.6" d="M15 28l13-13M28 15l-13-13M28 15h-26"></path>
</symbol>
<symbol id="icon-comma" viewBox="0 0 32 32">
<path d="M8.201 17.469q2.318-0.919 3.719 0.481t0.831 4.462q-0.438 2.275-1.925 3.5-1.444 1.182-3.369 1.181-2.625 0-3.631-2.013-1.007-2.056-0.393-5.512 0.349-1.882 1.137-3.807 0.787-1.925 2.1-3.937 1.312-2.012 3.412-3.5c1.309-0.944 2.875-1.62 4.571-1.915l0.067-0.010-0.438 4.637q-2.143 0.437-3.806 2.231-1.662 1.75-2.275 4.2zM21.37 17.469q2.318-0.919 3.719 0.481t0.831 4.462q-0.438 2.275-1.925 3.5-1.444 1.182-3.369 1.181-2.625 0-3.631-2.013-1.007-2.056-0.393-5.512c0.278-1.446 0.672-2.721 1.185-3.933l-0.048 0.127q0.787-1.925 2.1-3.937 1.312-2.012 3.413-3.5c1.309-0.944 2.874-1.62 4.57-1.915l0.067-0.010-0.438 4.637q-2.143 0.437-3.806 2.231-1.663 1.75-2.275 4.2z"></path>
</symbol>
<symbol id="icon-dumbbell" viewBox="0 0 32 32">
<path d="M7.36 9.142h-1.92c-0.531 0-0.96 0.459-0.96 1.029v4.458h-0.96c-0.176 0-0.32 0.154-0.32 0.342v2.058c0 0.189 0.144 0.342 0.32 0.342h0.96v4.458c0 0.57 0.429 1.029 0.96 1.029h1.92c0.533 0 0.96-0.459 0.96-1.029v-11.658c0-0.57-0.429-1.029-0.96-1.029zM28.48 14.629h-0.96v-4.458c0-0.57-0.427-1.029-0.96-1.029h-1.92c-0.531 0-0.96 0.459-0.96 1.029v11.658c0 0.57 0.429 1.029 0.96 1.029h1.92c0.531 0 0.96-0.459 0.96-1.029v-4.458h0.96c0.176 0 0.32-0.154 0.32-0.342v-2.058c0-0.189-0.144-0.342-0.32-0.342zM21.44 6.4h-1.92c-0.531 0-0.96 0.459-0.96 1.029v7.2h-5.12v-7.2c0-0.57-0.429-1.029-0.96-1.029h-1.92c-0.531 0-0.96 0.459-0.96 1.029v17.142c0 0.57 0.429 1.029 0.96 1.029h1.92c0.533 0 0.96-0.459 0.96-1.029v-7.2h5.12v7.2c0 0.57 0.429 1.029 0.96 1.029h1.92c0.531 0 0.96-0.459 0.96-1.029v-17.142c0-0.57-0.429-1.029-0.96-1.029z"></path>
</symbol>
<symbol id="icon-facebook" viewBox="0 0 32 32">
<path d="M19.52 4.64h0.96v3.6h-1.2c-0.48 0-0.96 0-1.2 0.24s-0.24 0.48-0.24 1.040v1.28h2.64v3.040h-2.64v13.2h-4.080v-13.28h-2.16v-3.040h2.16v-1.040c0-1.76 0.24-3.040 0.72-3.6 0.72-1.040 2.16-1.52 4.32-1.52 0.24 0.080 0.48 0.080 0.72 0.080z"></path>
</symbol>
<symbol id="icon-heart" viewBox="0 0 36 32">
<path stroke-linejoin="round" stroke-linecap="round" stroke-miterlimit="4" stroke-width="2.8235" d="M31.672 3.94c-1.561-1.562-3.719-2.528-6.102-2.528s-4.54 0.966-6.102 2.527l-1.664 1.664-1.662-1.664c-1.562-1.561-3.719-2.527-6.102-2.527-4.766 0-8.63 3.864-8.63 8.63 0 2.383 0.966 4.541 2.528 6.103l13.865 13.865 13.867-13.865c1.562-1.562 2.528-3.719 2.528-6.103s-0.966-4.541-2.528-6.103l-0-0"></path>
</symbol>
<symbol id="icon-man" viewBox="0 0 34 32">
<path d="M24.73 11.907c-0.142-0.163-0.35-0.265-0.582-0.265-0.185 0-0.354 0.065-0.487 0.173l0.001-0.001-2.1 1.723-0.965-2.337c-0.036-0.088-0.085-0.163-0.146-0.226l0 0c-0.208-0.45-0.561-0.804-0.999-1.006l-0.013-0.005c-0.183-0.082-0.396-0.14-0.619-0.163l-0.009-0.001c-0.047-0.023-0.090-0.055-0.142-0.071l-3.695-1.006c-0.059-0.016-0.127-0.025-0.198-0.025-0.143 0-0.277 0.038-0.392 0.105l0.004-0.002c-0.21 0.066-0.376 0.219-0.458 0.415l-0.002 0.005-1.391 3.495c-0.15 0.38 0.042 0.809 0.432 0.958 0.081 0.032 0.175 0.050 0.273 0.050 0.317 0 0.589-0.193 0.705-0.468l0.002-0.005 1.175-2.951 1.683 0.457c-0.041 0.065-0.086 0.125-0.119 0.195l-2.157 4.568c-0.031 0.067-0.048 0.135-0.070 0.205l-2.621 4.294-4.387 1.434c-0.276 0.198-0.453 0.518-0.453 0.88 0 0.246 0.082 0.472 0.22 0.654l-0.002-0.003c0.369 0.486 1.070 0.59 1.566 0.23l4.489-1.51c0.13-0.096 0.235-0.217 0.31-0.357l0.003-0.006c0.056-0.058 0.12-0.105 0.164-0.177l1.563-2.56 2.774 2.31-2.969 3.268c-0.174 0.191-0.281 0.445-0.281 0.725 0 0.327 0.146 0.619 0.376 0.817l0.001 0.001c0.462 0.402 1.17 0.36 1.582-0.093l3.704-4.078c0.115-0.125 0.184-0.27 0.23-0.422 0.028-0.082 0.028-0.168 0.035-0.253 0-0.044 0.016-0.083 0.013-0.123-0.007-0.32-0.154-0.605-0.383-0.795l-0.002-0.001-2.552-2.127c0.184-0.17 0.34-0.375 0.453-0.614l1.654-3.5 0.53 1.38c0.020 0.132 0.075 0.249 0.154 0.344l-0.001-0.001c0.080 0.093 0.181 0.155 0.29 0.198q0.017 0.007 0.038 0.010c0.061 0.024 0.132 0.042 0.207 0.050l0.003 0c0.018 0.002 0.038 0.002 0.059 0.002 0.072 0 0.141-0.011 0.206-0.031l-0.005 0.001 0.003-0.002c0.023-0.005 0.047 0 0.070-0.010 0.119-0.047 0.219-0.12 0.297-0.212l0.001-0.001 3.013-2.498c0.32-0.263 0.185-0.729-0.085-1.042zM20.92 10.126c1.165 0 2.11-0.923 2.11-2.063s-0.944-2.063-2.11-2.063c-1.167 0-2.112 0.924-2.112 2.063s0.945 2.063 2.111 2.063z"></path>
</symbol>
<symbol id="icon-instagram" viewBox="0 0 32 32">
<path d="M28.718 10.755c-0.016-1.134-0.233-2.212-0.617-3.207l0.021 0.063c-0.682-1.722-2.021-3.059-3.7-3.722l-0.044-0.015c-0.921-0.357-1.985-0.573-3.098-0.596l-0.010-0c-1.367-0.061-1.801-0.078-5.271-0.078s-3.917 0-5.274 0.078c-1.063 0.023-2.113 0.223-3.106 0.597-1.724 0.678-3.063 2.015-3.73 3.693l-0.015 0.044c-0.358 0.918-0.575 1.981-0.596 3.091l-0 0.009c-0.061 1.367-0.080 1.8-0.080 5.265s0 3.909 0.080 5.265c0.024 1.121 0.24 2.185 0.618 3.168l-0.022-0.064c0.682 1.721 2.021 3.058 3.7 3.721l0.044 0.015c0.917 0.369 1.98 0.6 3.091 0.637l0.015 0c1.369 0.062 1.802 0.080 5.274 0.080 3.471 0 3.917 0 5.274-0.080 1.122-0.022 2.187-0.238 3.172-0.616l-0.064 0.022c1.722-0.68 3.060-2.016 3.727-3.693l0.016-0.044c0.374-0.993 0.574-2.040 0.595-3.103 0.062-1.366 0.080-1.799 0.080-5.266-0.003-3.465-0.003-3.905-0.082-5.264zM15.989 22.531c-0.002 0-0.004 0-0.006 0-3.625 0-6.563-2.937-6.566-6.561v-0c0.002-3.624 2.94-6.561 6.565-6.561 0.002 0 0.005 0 0.007 0h-0c3.629 0 6.571 2.937 6.571 6.56-0.003 3.625-2.942 6.562-6.567 6.562-0.002 0-0.003 0-0.005 0h0zM22.823 10.696c-0.845 0-1.53-0.685-1.53-1.53s0.685-1.53 1.53-1.53v0c0.012-0 0.027-0.001 0.042-0.001 0.845 0 1.53 0.685 1.53 1.53s-0.685 1.53-1.53 1.53c-0.015 0-0.029-0-0.044-0.001l0.002 0z"></path>
<path d="M15.992 19.976c0.020 0 0.044 0.001 0.068 0.001 2.212 0 4.005-1.793 4.005-4.005s-1.793-4.005-4.005-4.005c-0.024 0-0.048 0-0.071 0.001l0.004-0c-2.182 0.038-3.937 1.816-3.937 4.004s1.755 3.966 3.933 4.004l0.004 0z"></path>
</symbol>
<symbol id="icon-search" viewBox="0 0 32 32">
<path stroke-linejoin="round" stroke-linecap="round" stroke-miterlimit="4" stroke-width="2.6667" d="M14.667 25.333c5.891 0 10.667-4.776 10.667-10.667s-4.776-10.667-10.667-10.667v0c-5.891 0-10.667 4.776-10.667 10.667s4.776 10.667 10.667 10.667v0M28 28l-5.801-5.799"></path>
</symbol>
<symbol id="icon-star" viewBox="0 0 32 32">
<path d="M13.62 1.701c0.738-2.267 3.946-2.267 4.682 0l2.080 6.4c0.33 0.997 1.253 1.703 2.341 1.703h6.732c2.383 0 3.375 3.052 1.447 4.453l-5.45 3.956c-0.618 0.453-1.014 1.176-1.014 1.991 0 0.272 0.044 0.534 0.126 0.778l-0.005-0.017 2.080 6.402c0.738 2.267-1.858 4.155-3.788 2.752l-5.442-3.953c-0.401-0.294-0.903-0.471-1.447-0.471s-1.047 0.176-1.454 0.475l0.007-0.005-5.445 3.956c-1.93 1.403-4.524-0.485-3.791-2.752l2.082-6.4c0.077-0.228 0.121-0.49 0.121-0.763 0-0.816-0.397-1.539-1.008-1.987l-0.007-0.005-5.447-3.958c-1.927-1.403-0.935-4.455 1.447-4.455h6.732c1.086-0.001 2.007-0.705 2.333-1.681l0.005-0.017z"></path>
</symbol>
<symbol id="icon-trash" viewBox="0 0 30 32">
<path stroke-linejoin="round" stroke-linecap="round" stroke-miterlimit="4" stroke-width="2.7733" d="M19.876 7.076v-1.139c0-1.591 0-2.389-0.311-2.997-0.277-0.538-0.703-0.965-1.224-1.236l-0.016-0.007c-0.612-0.309-1.408-0.309-3.002-0.309h-2.274c-1.594 0-2.389 0-2.999 0.309-0.533 0.273-0.971 0.708-1.242 1.244-0.311 0.608-0.311 1.406-0.311 2.997v1.139M11.343 14.897v7.113M17.030 14.897v7.113M1.387 7.076h25.6M24.143 7.076v15.927c0 2.389 0 3.584-0.465 4.497-0.417 0.806-1.058 1.448-1.841 1.853l-0.024 0.011c-0.913 0.465-2.108 0.465-4.497 0.465h-6.259c-2.389 0-3.584 0-4.497-0.465-0.806-0.417-1.448-1.058-1.853-1.841l-0.011-0.024c-0.465-0.913-0.465-2.108-0.465-4.497v-15.927"></path>
</symbol>
<symbol id="icon-x" viewBox="0 0 32 32">
<path stroke-linejoin="round" stroke-linecap="round" stroke-miterlimit="4" stroke-width="2.2857" d="M22.666 9.334l-13.333 13.333M9.334 9.334l13.333 13.333"></path>
</symbol>
<symbol id="icon-youtube" viewBox="0 0 32 32">
<path d="M24.24 6c-1.36-0.080-4.16-0.16-8.4-0.16h-0.56q-6.12 0-8.16 0.24c-1.84 0.16-3.12 0.64-3.84 1.28-0.64 0.56-1.12 1.6-1.28 2.96-0.080 0.88-0.16 2.72-0.16 5.52v0.4c0 2.64 0.080 4.48 0.24 5.36 0.24 1.28 0.64 2.24 1.44 2.8q1.2 0.96 4.080 1.2c1.36 0.080 4.16 0.16 8.4 0.16h0.56q6.12 0 8.16-0.24c1.84-0.16 3.12-0.64 3.84-1.28 0.64-0.56 1.12-1.6 1.28-2.96 0.080-0.88 0.16-2.72 0.16-5.52v-0.4c0-2.64-0.080-4.48-0.24-5.36-0.24-1.28-0.64-2.24-1.44-2.8q-1.2-0.96-4.080-1.2zM21.12 15.84l-8.8 5.28v-10.56z"></path>
</symbol>
</defs>
</svg>
